HIERARCHY
ROOT Hips
{
	OFFSET 0.000000 87.230942 0.000000
	CHANNELS 6 Xposition Yposition Zposition Xrotation Yrotation Zrotation
	JOINT Pelvis
	{
		OFFSET 0.000000 0.000000 0.000000
		CHANNELS 3 Xrotation Yrotation Zrotation
		JOINT LeftUpLeg
		{
			OFFSET 12.017000 -9.376404 -2.439400
			CHANNELS 3 Xrotation Yrotation Zrotation
			JOINT LeftLeg
			{
				OFFSET -0.007312 -32.846973 2.110600
				CHANNELS 3 Xrotation Yrotation Zrotation
				JOINT LeftFoot
				{
					OFFSET 0.007312 -32.065170 -0.570400
					CHANNELS 3 Xrotation Yrotation Zrotation
					JOINT LeftToeBase
					{
						OFFSET 0.728300 -11.045900 13.180700
						CHANNELS 3 Xrotation Yrotation Zrotation
						End Site
						{
							OFFSET 0.000000 17.212589 0.000000
						}
					}
				}
				JOINT LeftPantLeg
				{
					OFFSET 0.002788 -16.709013 -3.143600
					CHANNELS 3 Xrotation Yrotation Zrotation
					End Site
					{
						OFFSET -0.605125 24.528742 0.000000
					}
				}
			}
			JOINT Left_Butt
			{
				OFFSET -6.630234 1.326584 -3.183700
				CHANNELS 3 Xrotation Yrotation Zrotation
				End Site
				{
					OFFSET -0.498041 20.188049 0.000000
				}
			}
		}
		JOINT RightUpLeg
		{
			OFFSET -11.717000 -9.376404 -2.439400
			CHANNELS 3 Xrotation Yrotation Zrotation
			JOINT RightLeg
			{
				OFFSET -0.003241 -32.846912 2.110600
				CHANNELS 3 Xrotation Yrotation Zrotation
				JOINT RightFoot
				{
					OFFSET 0.003241 -32.065136 -0.570500
					CHANNELS 3 Xrotation Yrotation Zrotation
					JOINT RightToeBase
					{
						OFFSET -0.728300 -11.045901 13.180700
						CHANNELS 3 Xrotation Yrotation Zrotation
						End Site
						{
							OFFSET 0.000000 17.212593 0.000000
						}
					}
				}
				JOINT RightPantLeg
				{
					OFFSET 0.008142 -16.708982 -3.143700
					CHANNELS 3 Xrotation Yrotation Zrotation
					End Site
					{
						OFFSET 0.605088 24.528715 0.000000
					}
				}
			}
			JOINT Right_Butt
			{
				OFFSET 6.630732 1.326584 -3.183700
				CHANNELS 3 Xrotation Yrotation Zrotation
				End Site
				{
					OFFSET 0.498015 20.188240 0.000000
				}
			}
		}
	}
	JOINT Spine
	{
		OFFSET -0.062400 7.848404 3.918300
		CHANNELS 3 Xrotation Yrotation Zrotation
		JOINT Spine1
		{
			OFFSET -0.072800 11.422302 0.713400
			CHANNELS 3 Xrotation Yrotation Zrotation
			JOINT Spine2
			{
				OFFSET -0.083200 13.054001 -1.931600
				CHANNELS 3 Xrotation Yrotation Zrotation
				JOINT Neck
				{
					OFFSET -0.092200 14.121796 -5.138800
					CHANNELS 3 Xrotation Yrotation Zrotation
					JOINT Head
					{
						OFFSET 0.000200 10.447403 -0.842000
						CHANNELS 3 Xrotation Yrotation Zrotation
						JOINT Visor
						{
							OFFSET 0.457100 25.671204 16.550400
							CHANNELS 3 Xrotation Yrotation Zrotation
							End Site
							{
								OFFSET 0.000000 26.061493 0.000000
							}
						}
						JOINT HairMidA
						{
							OFFSET 0.459400 31.585403 8.437400
							CHANNELS 3 Xrotation Yrotation Zrotation
							End Site
							{
								OFFSET 0.000000 26.061493 0.000000
							}
						}
						JOINT HairMidB
						{
							OFFSET 0.464000 33.309204 -8.389700
							CHANNELS 3 Xrotation Yrotation Zrotation
							End Site
							{
								OFFSET 0.000000 26.061493 0.000000
							}
						}
						JOINT HairMidC
						{
							OFFSET 0.466600 27.991196 -17.375099
							CHANNELS 3 Xrotation Yrotation Zrotation
							End Site
							{
								OFFSET 0.000000 26.061493 0.000000
							}
						}
						JOINT HairMidD
						{
							OFFSET 0.467700 17.888092 -21.169500
							CHANNELS 3 Xrotation Yrotation Zrotation
							End Site
							{
								OFFSET 0.000000 26.061493 0.000000
							}
						}
						JOINT HairMidE
						{
							OFFSET 5.325700 3.514603 -14.369699
							CHANNELS 3 Xrotation Yrotation Zrotation
							End Site
							{
								OFFSET 0.000000 26.061493 0.000000
							}
						}
						JOINT HairMidF
						{
							OFFSET -4.394100 3.514603 -14.372400
							CHANNELS 3 Xrotation Yrotation Zrotation
							End Site
							{
								OFFSET 0.000000 26.061493 0.000000
							}
						}
						JOINT HairLeftA
						{
							OFFSET 15.319900 25.746506 2.623300
							CHANNELS 3 Xrotation Yrotation Zrotation
							End Site
							{
								OFFSET 0.000000 26.061493 0.000000
							}
						}
						JOINT HairLeftB
						{
							OFFSET 12.619500 29.289398 -8.731499
							CHANNELS 3 Xrotation Yrotation Zrotation
							End Site
							{
								OFFSET 0.000000 26.061493 0.000000
							}
						}
						JOINT HairLeftC
						{
							OFFSET 15.714800 15.959900 2.909800
							CHANNELS 3 Xrotation Yrotation Zrotation
							End Site
							{
								OFFSET 0.000000 26.061493 0.000000
							}
						}
						JOINT HairLeftD
						{
							OFFSET 16.101700 18.437408 -7.553200
							CHANNELS 3 Xrotation Yrotation Zrotation
							End Site
							{
								OFFSET 0.000000 26.061493 0.000000
							}
						}
						JOINT HairLeftE
						{
							OFFSET 9.731900 17.915009 -18.316799
							CHANNELS 3 Xrotation Yrotation Zrotation
							End Site
							{
								OFFSET 0.000000 26.061493 0.000000
							}
						}
						JOINT HairLeftF
						{
							OFFSET 11.204300 4.953598 -9.668100
							CHANNELS 3 Xrotation Yrotation Zrotation
							End Site
							{
								OFFSET 0.000000 26.061493 0.000000
							}
						}
						JOINT HairRightA
						{
							OFFSET -14.397900 25.746307 2.615100
							CHANNELS 3 Xrotation Yrotation Zrotation
							End Site
							{
								OFFSET 0.000000 26.061493 0.000000
							}
						}
						JOINT HairRightB
						{
							OFFSET -11.691200 29.289200 -8.738199
							CHANNELS 3 Xrotation Yrotation Zrotation
							End Site
							{
								OFFSET 0.000000 26.061493 0.000000
							}
						}
						JOINT HairRightC
						{
							OFFSET -14.792900 15.959702 2.901400
							CHANNELS 3 Xrotation Yrotation Zrotation
							End Site
							{
								OFFSET 0.000000 26.061493 0.000000
							}
						}
						JOINT HairRightD
						{
							OFFSET -15.174000 18.437195 -7.561900
							CHANNELS 3 Xrotation Yrotation Zrotation
							End Site
							{
								OFFSET 0.000000 26.061493 0.000000
							}
						}
						JOINT HairRightE
						{
							OFFSET -8.798200 17.914902 -18.322001
							CHANNELS 3 Xrotation Yrotation Zrotation
							End Site
							{
								OFFSET 0.000000 26.061493 0.000000
							}
						}
						JOINT HairRightF
						{
							OFFSET -10.275200 4.953506 -9.674099
							CHANNELS 3 Xrotation Yrotation Zrotation
							End Site
							{
								OFFSET 0.000000 26.061493 0.000000
							}
						}
					}
				}
				JOINT LeftShoulder
				{
					OFFSET 5.133500 7.341202 -1.867600
					CHANNELS 3 Xrotation Yrotation Zrotation
					JOINT LeftArm
					{
						OFFSET 8.072663 0.936867 -2.176600
						CHANNELS 3 Xrotation Yrotation Zrotation
						JOINT LeftForeArm
						{
							OFFSET 31.271999 0.000000 0.000000
							CHANNELS 3 Xrotation Yrotation Zrotation
							JOINT LeftHand
							{
								OFFSET 31.771030 0.000000 0.000000
								CHANNELS 3 Xrotation Yrotation Zrotation
								JOINT LeftHandThumb1
								{
									OFFSET 2.886520 -2.557846 4.416640
									CHANNELS 3 Xrotation Yrotation Zrotation
									JOINT LeftHandThumb2
									{
										OFFSET 2.371025 -1.368912 1.368911
										CHANNELS 3 Xrotation Yrotation Zrotation
										JOINT LeftHandThumb3
										{
											OFFSET 2.243378 -1.295212 1.295213
											CHANNELS 3 Xrotation Yrotation Zrotation
											End Site
											{
												OFFSET -0.332611 2.876945 0.020015
											}
										}
									}
								}
								JOINT LeftHandIndex1
								{
									OFFSET 8.568985 -0.641945 3.119977
									CHANNELS 3 Xrotation Yrotation Zrotation
									JOINT LeftHandIndex2
									{
										OFFSET 3.348503 0.000000 0.000000
										CHANNELS 3 Xrotation Yrotation Zrotation
										JOINT LeftHandIndex3
										{
											OFFSET 3.314552 0.000000 0.000000
											CHANNELS 3 Xrotation Yrotation Zrotation
											End Site
											{
												OFFSET -1.032898 3.075485 0.678796
											}
										}
									}
								}
								JOINT LeftHandMiddle1
								{
									OFFSET 8.124603 0.000000 0.000000
									CHANNELS 3 Xrotation Yrotation Zrotation
									JOINT LeftHandMiddle2
									{
										OFFSET 4.166275 0.000000 0.000000
										CHANNELS 3 Xrotation Yrotation Zrotation
										JOINT LeftHandMiddle3
										{
											OFFSET 3.018135 0.000000 0.000000
											CHANNELS 3 Xrotation Yrotation Zrotation
											End Site
											{
												OFFSET -1.032700 2.767982 0.617226
											}
										}
									}
								}
								JOINT LeftHandRing1
								{
									OFFSET 8.571686 -0.031357 -2.884048
									CHANNELS 3 Xrotation Yrotation Zrotation
									JOINT LeftHandRing2
									{
										OFFSET 3.671181 0.000000 0.000000
										CHANNELS 3 Xrotation Yrotation Zrotation
										JOINT LeftHandRing3
										{
											OFFSET 2.728851 0.000000 0.000000
											CHANNELS 3 Xrotation Yrotation Zrotation
											End Site
											{
												OFFSET -0.815796 2.539223 0.577389
											}
										}
									}
								}
								JOINT LeftHandPinky1
								{
									OFFSET 7.854515 -0.675232 -5.213020
									CHANNELS 3 Xrotation Yrotation Zrotation
									JOINT LeftHandPinky2
									{
										OFFSET 3.068596 0.000000 0.000000
										CHANNELS 3 Xrotation Yrotation Zrotation
										JOINT LeftHandPinky3
										{
											OFFSET 2.396042 0.000000 0.000000
											CHANNELS 3 Xrotation Yrotation Zrotation
											End Site
											{
												OFFSET -0.524597 2.267998 0.567429
											}
										}
									}
								}
							}
							JOINT LeftSleeve
							{
								OFFSET 19.684509 -0.200119 0.476146
								CHANNELS 3 Xrotation Yrotation Zrotation
								End Site
								{
									OFFSET -0.031017 25.731133 -0.002868
								}
							}
						}
					}
				}
				JOINT RightShoulder
				{
					OFFSET -4.395900 7.341202 -1.870200
					CHANNELS 3 Xrotation Yrotation Zrotation
					JOINT RightArm
					{
						OFFSET -8.071453 0.936867 -2.181100
						CHANNELS 3 Xrotation Yrotation Zrotation
						JOINT RightForeArm
						{
							OFFSET -31.272011 0.000000 0.000000
							CHANNELS 3 Xrotation Yrotation Zrotation
							JOINT RightHand
							{
								OFFSET -31.771019 0.000000 0.000000
								CHANNELS 3 Xrotation Yrotation Zrotation
								JOINT RightHandThumb1
								{
									OFFSET -2.886520 -2.557808 4.416626
									CHANNELS 3 Xrotation Yrotation Zrotation
									JOINT RightHandThumb2
									{
										OFFSET -2.371056 -1.368927 1.368928
										CHANNELS 3 Xrotation Yrotation Zrotation
										JOINT RightHandThumb3
										{
											OFFSET -2.243362 -1.295204 1.295206
											CHANNELS 3 Xrotation Yrotation Zrotation
											End Site
											{
												OFFSET 0.332642 2.876938 0.020047
											}
										}
									}
								}
								JOINT RightHandIndex1
								{
									OFFSET -8.568993 -0.641953 3.120017
									CHANNELS 3 Xrotation Yrotation Zrotation
									JOINT RightHandIndex2
									{
										OFFSET -3.348518 0.000000 0.000000
										CHANNELS 3 Xrotation Yrotation Zrotation
										JOINT RightHandIndex3
										{
											OFFSET -3.314552 0.000000 0.000000
											CHANNELS 3 Xrotation Yrotation Zrotation
											End Site
											{
												OFFSET 1.032898 3.075478 0.678804
											}
										}
									}
								}
								JOINT RightHandMiddle1
								{
									OFFSET -8.124588 0.000000 0.000000
									CHANNELS 3 Xrotation Yrotation Zrotation
									JOINT RightHandMiddle2
									{
										OFFSET -4.166275 0.000000 0.000000
										CHANNELS 3 Xrotation Yrotation Zrotation
										JOINT RightHandMiddle3
										{
											OFFSET -3.018097 0.000000 0.000000
											CHANNELS 3 Xrotation Yrotation Zrotation
											End Site
											{
												OFFSET 1.032700 2.767937 0.617197
											}
										}
									}
								}
								JOINT RightHandRing1
								{
									OFFSET -8.571747 -0.031349 -2.884061
									CHANNELS 3 Xrotation Yrotation Zrotation
									JOINT RightHandRing2
									{
										OFFSET -3.671204 0.000000 0.000000
										CHANNELS 3 Xrotation Yrotation Zrotation
										JOINT RightHandRing3
										{
											OFFSET -2.728874 0.000000 0.000000
											CHANNELS 3 Xrotation Yrotation Zrotation
											End Site
											{
												OFFSET 0.815804 2.539261 0.577413
											}
										}
									}
								}
								JOINT RightHandPinky1
								{
									OFFSET -7.854561 -0.675247 -5.212970
									CHANNELS 3 Xrotation Yrotation Zrotation
									JOINT RightHandPinky2
									{
										OFFSET -3.068550 0.000000 0.000000
										CHANNELS 3 Xrotation Yrotation Zrotation
										JOINT RightHandPinky3
										{
											OFFSET -2.395981 0.000000 0.000000
											CHANNELS 3 Xrotation Yrotation Zrotation
											End Site
											{
												OFFSET 0.524605 2.267952 0.567413
											}
										}
									}
								}
							}
							JOINT RightSleeve
							{
								OFFSET -19.684753 -0.200165 0.476065
								CHANNELS 3 Xrotation Yrotation Zrotation
								End Site
								{
									OFFSET 0.031342 25.731255 -0.002917
								}
							}
						}
					}
				}
				JOINT Hood
				{
					OFFSET 0.369700 14.447800 -5.317800
					CHANNELS 3 Xrotation Yrotation Zrotation
					JOINT Hood1
					{
						OFFSET 0.001700 -5.553802 -5.895100
						CHANNELS 3 Xrotation Yrotation Zrotation
						JOINT Hood2
						{
							OFFSET -0.000200 -8.380501 0.763600
							CHANNELS 3 Xrotation Yrotation Zrotation
							End Site
							{
								OFFSET 0.000000 8.415215 0.000000
							}
						}
					}
				}
				JOINT Left_Breast
				{
					OFFSET 5.682500 3.120102 3.188800
					CHANNELS 3 Xrotation Yrotation Zrotation
					End Site
					{
						OFFSET 0.000000 10.528564 0.000000
					}
				}
				JOINT Right_Breast
				{
					OFFSET -4.947600 3.120102 3.185900
					CHANNELS 3 Xrotation Yrotation Zrotation
					End Site
					{
						OFFSET 0.000000 10.528564 0.000000
					}
				}
				JOINT Whistle
				{
					OFFSET 0.368200 11.471298 0.095400
					CHANNELS 3 Xrotation Yrotation Zrotation
					JOINT Whistle1
					{
						OFFSET -0.002000 -6.349899 7.479800
						CHANNELS 3 Xrotation Yrotation Zrotation
						JOINT Whistle2
						{
							OFFSET -0.001300 -8.217598 4.717600
							CHANNELS 3 Xrotation Yrotation Zrotation
							End Site
							{
								OFFSET 0.000000 9.475479 0.000000
							}
						}
					}
				}
			}
		}
		JOINT Belly
		{
			OFFSET 0.212400 1.593002 3.163700
			CHANNELS 3 Xrotation Yrotation Zrotation
			End Site
			{
				OFFSET 0.000000 7.496635 0.000000
			}
		}
	}
	JOINT FitGrandmaFacialAnim_Joint
	{
		OFFSET 1.150000 -86.211197 -1.220100
		CHANNELS 3 Xrotation Yrotation Zrotation
		End Site
		{
			OFFSET 0.000000 31.666618 0.000000
		}
	}
}
MOTION
Frames: 4
Frame Time: 0.016667
8.056713 31.673782 346.778320 48.165828 -48.830129 79.065334 -0.000000 -0.000000 0.000000 -60.463423 -4.440385 37.188877 25.919417 -13.123747 1.754750 -1.367539 2.280610 -34.821937 -0.000000 -0.000001 -0.000007 0.000000 0.000000 0.000001 -0.000000 0.000000 0.000000 -95.030580 -7.281040 -12.152839 135.525515 24.606860 -1.817647 31.211304 9.879104 42.177883 -0.000000 0.000001 -0.000000 -0.000000 0.000002 0.000000 -0.000000 0.000001 -0.000000 10.203160 -5.751931 -1.041641 20.581470 -10.516336 -0.144610 20.581467 -10.516338 -0.144612 6.882622 9.770573 -6.782386 -14.592931 28.209540 -15.856177 0.000002 -0.000001 -0.000000 0.000002 -0.000001 -0.000000 0.000002 -0.000001 -0.000000 0.000002 -0.000001 -0.000000 0.000002 -0.000001 -0.000000 0.000002 -0.000001 -0.000000 0.000002 -0.000001 -0.000000 0.000002 -0.000001 -0.000000 0.000002 -0.000001 -0.000000 0.000002 -0.000001 -0.000000 0.000002 -0.000001 -0.000000 0.000002 -0.000001 -0.000000 0.000002 -0.000001 -0.000000 0.000002 -0.000001 -0.000000 0.000002 -0.000001 -0.000000 0.000002 -0.000001 -0.000000 0.000002 -0.000001 -0.000000 0.000002 -0.000001 -0.000000 0.000002 -0.000001 -0.000000 0.362242 -5.563727 -21.430635 0.286701 6.219484 -63.452034 -148.351750 -173.569081 -190.299329 39.822192 -0.729493 37.310632 -4.114274 -2.883211 2.590916 3.243725 8.782384 2.381180 -0.000003 0.000001 0.000003 -1.241493 -9.199137 -7.937315 0.088627 0.738665 -16.880087 0.000001 -0.000003 0.000003 -1.135459 -2.096677 -22.025803 -0.352564 -1.388809 -20.431056 -0.000001 0.000003 0.000003 -0.604918 6.370767 -33.094288 -0.503176 -2.580171 -29.586108 -0.000002 0.000001 0.000000 1.054935 14.668678 -34.412330 -0.798123 -5.868260 -45.099937 -0.000001 0.000002 -0.000004 -0.000001 -0.000000 -0.000001 -0.050557 24.927851 12.864296 -31.840071 -0.829617 -5.819336 -379.939272 5.531942 357.334734 -23.422689 14.855836 -3.043162 -8.673380 4.254502 -11.634309 1.334050 -4.465154 -1.906676 -0.000000 0.000002 0.000001 -0.335821 9.317614 2.768384 0.227936 -1.535000 12.475391 -0.000002 -0.000001 -0.000001 -1.156258 -1.644394 1.983701 -0.068692 0.174105 10.971378 -0.000001 0.000000 -0.000003 1.493752 -11.293054 7.517294 -0.170917 1.899014 13.176993 0.000003 -0.000000 0.000001 2.276088 -19.063000 5.358309 -0.684440 6.522629 19.944084 0.000000 -0.000001 -0.000002 -0.000004 -0.000002 -0.000002 -0.000000 0.000001 0.000000 -0.000000 0.000001 0.000000 -0.000000 0.000001 0.000000 -0.000000 0.000001 0.000000 -0.000000 0.000001 0.000000 -0.000000 0.000001 0.000000 -0.000000 0.000001 -0.000000 -0.000000 0.000001 -0.000000 0.000002 0.000003 0.000001 -0.000000 -0.000000 0.000000 
8.095551 33.051369 352.755615 49.944187 -47.931153 77.301042 -0.000000 -0.000002 -0.000003 -66.256510 -6.161786 39.541037 30.981233 -14.134726 0.053386 1.074028 1.524915 -36.824033 0.000001 0.000000 0.000000 0.000001 -0.000000 0.000000 0.000000 -0.000002 -0.000002 -93.978021 -4.376691 -17.208289 134.559084 29.998987 -1.537922 32.577885 10.537781 42.588763 0.000001 -0.000003 -0.000004 0.000000 -0.000004 -0.000002 0.000003 0.000002 -0.000001 9.940411 -4.725125 -1.001077 20.001866 -8.523648 -0.281560 20.001883 -8.523661 -0.281538 4.786788 10.382571 -5.045979 -15.958529 27.751233 -13.817710 -0.000001 0.000001 -0.000000 -0.000001 0.000001 -0.000000 -0.000001 0.000001 -0.000000 -0.000001 0.000001 -0.000000 -0.000001 0.000001 -0.000000 -0.000001 0.000001 -0.000000 -0.000001 0.000001 -0.000000 -0.000001 0.000001 -0.000000 -0.000001 0.000001 -0.000000 -0.000001 0.000001 -0.000000 -0.000001 0.000001 -0.000000 -0.000001 0.000001 -0.000000 -0.000001 0.000001 -0.000000 -0.000001 0.000001 -0.000000 -0.000001 0.000001 -0.000000 -0.000001 0.000001 -0.000000 -0.000001 0.000001 -0.000000 -0.000001 0.000001 -0.000000 -0.000001 0.000001 -0.000000 0.397067 -5.187127 -22.907273 -0.202601 5.720639 -61.837603 -146.267026 -172.915501 -190.464606 42.708835 -0.958270 34.784425 -4.445401 -3.482511 2.728184 2.927690 8.062632 2.313128 0.000002 -0.000002 0.000005 -1.336431 -9.878733 -7.883067 0.087935 0.739304 -16.878485 -0.000001 0.000001 0.000001 -1.169750 -2.214623 -21.672125 -0.339397 -1.353845 -20.091322 0.000001 0.000000 0.000000 -0.583586 6.403840 -32.534547 -0.486663 -2.550223 -29.022942 0.000002 -0.000002 0.000002 1.177281 14.915646 -33.689563 -0.786905 -5.857036 -44.330711 -0.000001 0.000000 -0.000002 -0.000001 0.000000 0.000001 -0.236755 25.773724 13.779207 -31.371414 -4.560770 -1.693857 -384.756768 7.161658 357.547480 -27.510938 12.091503 2.976914 -7.433040 2.682793 -10.818160 1.979895 -5.919525 -2.080320 0.000000 0.000002 -0.000003 -0.393900 9.214333 3.477789 0.148240 -1.237746 15.555659 0.000002 0.000001 0.000001 -1.160000 -1.569479 2.937670 -0.161683 0.560282 15.420972 0.000001 0.000001 -0.000003 1.457512 -10.868875 11.271567 -0.249402 2.199698 16.784288 0.000001 -0.000000 -0.000003 2.263672 -18.388039 10.401809 -0.823583 6.882929 24.954899 -0.000003 -0.000000 0.000002 -0.000000 0.000001 0.000001 0.000000 -0.000001 0.000000 0.000000 -0.000001 0.000000 0.000000 -0.000001 0.000000 0.000000 -0.000001 0.000000 0.000000 -0.000001 0.000000 0.000000 -0.000001 0.000000 0.000000 0.000000 -0.000000 0.000000 0.000000 -0.000000 -0.000000 0.000000 0.000001 -0.000000 -0.000002 -0.000003 
8.043648 34.320129 358.448181 50.610254 -47.375879 75.335252 0.000000 0.000000 0.000001 -73.517547 -8.554679 40.358300 40.810141 -14.506424 -1.776767 2.297189 0.836863 -32.966553 0.000001 -0.000001 0.000002 0.000001 0.000001 0.000002 0.000001 0.000002 -0.000002 -92.206598 -2.674291 -22.490713 132.721203 33.622720 -1.166874 34.713398 11.367778 42.442184 -0.000002 -0.000001 0.000002 0.000001 0.000002 0.000001 0.000001 -0.000001 -0.000001 9.601399 -3.833376 -1.221818 19.278004 -6.757569 -0.819785 19.277999 -6.757576 -0.819780 2.631877 10.989359 -3.335732 -17.269377 27.297071 -11.811726 -0.000001 -0.000001 -0.000002 -0.000001 -0.000001 -0.000002 -0.000001 -0.000001 -0.000002 -0.000001 -0.000001 -0.000002 -0.000001 -0.000001 -0.000002 -0.000001 -0.000001 -0.000002 -0.000001 -0.000001 -0.000002 -0.000001 -0.000001 -0.000002 -0.000001 -0.000001 -0.000002 -0.000001 -0.000001 -0.000002 -0.000001 -0.000001 -0.000002 -0.000001 -0.000001 -0.000002 -0.000001 -0.000001 -0.000002 -0.000001 -0.000001 -0.000002 -0.000001 -0.000001 -0.000002 -0.000001 -0.000001 -0.000002 -0.000001 -0.000001 -0.000002 -0.000001 -0.000001 -0.000002 -0.000001 -0.000001 -0.000002 0.465105 -4.608218 -24.755905 -0.485214 5.159797 -58.615379 -144.010782 -172.188277 -190.600267 45.765706 -1.440299 30.198800 -4.773369 -4.073340 2.858742 2.615703 7.353343 2.242195 -0.000001 -0.000000 -0.000001 -1.428896 -10.548863 -7.827906 0.087329 0.740311 -16.874310 -0.000001 0.000000 0.000001 -1.201780 -2.331316 -21.320990 -0.326573 -1.319092 -19.753897 -0.000000 0.000000 0.000000 -0.562677 6.437006 -31.980284 -0.470586 -2.520359 -28.465302 0.000003 -0.000001 0.000002 1.292166 15.162492 -32.973387 -0.775902 -5.845684 -43.569995 -0.000003 -0.000001 0.000005 0.000003 0.000000 0.000000 -0.396559 26.079971 14.675672 -30.053474 -9.716204 4.642512 -391.232525 11.814332 359.537961 -30.477892 10.402933 5.041863 -6.133044 1.047361 -9.912459 2.654138 -7.447379 -2.244919 -0.000000 0.000002 -0.000002 -0.450107 9.106262 4.214739 0.053991 -0.930980 18.768643 -0.000001 0.000001 -0.000000 -1.164887 -1.492405 3.920520 -0.288212 0.955487 20.070748 0.000001 -0.000001 -0.000000 1.386749 -10.440784 15.187358 -0.353063 2.507104 20.550979 0.000001 -0.000000 0.000001 2.167647 -17.721332 15.653578 -1.011851 7.240398 30.198653 -0.000002 0.000000 -0.000000 0.000002 -0.000002 -0.000001 -0.000000 0.000001 -0.000000 -0.000000 0.000001 -0.000000 -0.000000 0.000001 -0.000000 -0.000000 0.000001 -0.000000 -0.000000 0.000001 -0.000000 -0.000000 0.000001 0.000000 -0.000000 0.000000 -0.000000 -0.000000 0.000000 -0.000000 0.000002 -0.000003 -0.000002 0.000000 0.000000 0.000001 
7.961079 35.422539 363.942047 49.533085 -47.445714 72.767702 -0.000001 0.000001 0.000001 -80.624557 -10.182023 39.812660 51.270453 -14.861797 -3.727764 3.079852 0.301838 -28.161082 0.000000 0.000002 -0.000002 0.000000 0.000001 -0.000001 -0.000000 0.000002 0.000001 -88.985153 -1.265220 -28.336389 131.027781 36.295936 -0.793951 36.566442 12.068440 42.254388 -0.000002 -0.000001 0.000000 -0.000000 0.000000 0.000001 0.000002 0.000000 0.000001 9.275882 -3.036069 -1.625435 18.588288 -5.258762 -1.680246 18.588314 -5.258760 -1.680258 0.571265 11.532741 -1.744114 -18.427326 26.870560 -9.953125 0.000001 0.000001 0.000003 0.000001 0.000001 0.000003 0.000001 0.000001 0.000003 0.000001 0.000001 0.000003 0.000001 0.000001 0.000003 0.000001 0.000001 0.000003 0.000001 0.000001 0.000003 0.000001 0.000001 0.000003 0.000001 0.000001 0.000003 0.000001 0.000001 0.000003 0.000001 0.000001 0.000003 0.000001 0.000001 0.000003 0.000001 0.000001 0.000003 0.000001 0.000001 0.000003 0.000001 0.000001 0.000003 0.000001 0.000001 0.000003 0.000001 0.000001 0.000003 0.000001 0.000001 0.000003 0.000001 0.000001 0.000003 0.565321 -3.855087 -26.469870 -0.377993 4.639013 -53.992379 -141.899516 -171.460834 -190.722951 48.339964 -2.166204 23.977637 -5.095733 -4.651569 2.981492 2.310052 6.659727 2.169111 -0.000000 0.000002 -0.000000 -1.518663 -11.204961 -7.773424 0.086784 0.741555 -16.868778 0.000001 -0.000000 -0.000001 -1.231398 -2.446057 -20.976308 -0.314206 -1.284953 -19.422594 -0.000001 0.000000 -0.000001 -0.542358 6.469923 -31.436998 -0.455122 -2.490878 -27.918719 -0.000000 0.000001 -0.000003 1.399119 15.407085 -32.270786 -0.765243 -5.834297 -42.824859 -0.000003 -0.000001 0.000001 0.000001 0.000000 0.000001 -0.494405 25.605336 15.379848 -27.617744 -15.476797 13.095645 -397.951300 18.998047 362.816097 -31.421517 9.986919 3.015503 -4.886141 -0.502092 -8.999060 3.296510 -8.910296 -2.385461 -0.000000 0.000001 0.000001 -0.500772 9.004471 4.908673 -0.045894 -0.643395 21.813382 -0.000002 -0.000001 -0.000002 -1.170232 -1.421039 4.831204 -0.435754 1.321407 24.491235 -0.000001 -0.000001 -0.000000 1.289290 -10.051212 18.899803 -0.471395 2.791359 24.127252 -0.000000 -0.000001 -0.000003 2.001324 -17.132485 20.631046 -1.228844 7.557175 35.191382 -0.000000 0.000001 -0.000002 0.000001 0.000001 0.000000 -0.000000 0.000000 -0.000000 -0.000000 0.000000 -0.000000 -0.000000 0.000000 -0.000000 -0.000000 0.000000 -0.000000 -0.000000 0.000000 -0.000000 -0.000000 0.000000 0.000000 0.000000 0.000001 0.000000 0.000000 0.000001 0.000000 -0.000000 0.000000 0.000001 -0.000001 0.000001 0.000001 
